Coordinates
version=1
nRows=21
nColumns=22
inDegrees=yes

Units are S.I. units (second, meters, Newtons, ...)
If the header above contains a line with 'inDegrees', this indicates whether rotational values are in degrees (yes) or radians (no).

endheader
time	pelvis_tilt	pelvis_list	pelvis_rotation	pelvis_tx	pelvis_ty	pelvis_tz	hip_flexion_r	hip_adduction_r	hip_rotation_r	knee_angle_r	ankle_angle_r	subtalar_angle_r	hip_flexion_l	hip_adduction_l	hip_rotation_l	knee_angle_l	ankle_angle_l	subtalar_angle_l	lumbar_extension	lumbar_bending	lumbar_rotation
      1.40000000	      6.47022566	     -2.35366918	      7.35906551	     -1.39712867	      0.95744883	      0.02603805	     -6.33322624	      4.64237837	    -11.70812719	     -8.74840062	      9.25409043	      0.62119806	     -2.84503917	     -3.97594067	     -9.51684894	    -15.64226756	     19.88210609	     -7.07507095	    -10.03121452	      3.62607462	    -10.78744890
      1.41000000	      6.46701191	     -2.35430529	      7.35942273	     -1.39687666	      0.95742822	      0.02602470	     -6.34136805	      4.64466899	    -11.70722239	     -8.75562078	      9.25870418	      0.61953967	     -2.85347242	     -3.97708229	     -9.51253055	    -15.65122093	     19.88361431	     -7.07630960	    -10.02533967	      3.62138980	    -10.78708687
      1.42000000	      6.48638591	     -2.34924336	      7.37881999	     -1.39664424	      0.95742751	      0.02598097	     -6.37352199	      4.64451893	    -11.73701930	     -8.76693999	      9.34673257	      0.58216823	     -2.87709664	     -3.97527776	     -9.47549242	    -15.67151413	     19.92403676	     -7.09859523	    -10.05443220	      3.61709011	    -10.80422474
      1.43000000	      6.48156909	     -2.34945681	      7.38177943	     -1.39638071	      0.95740796	      0.02596384	     -6.38090842	      4.64746444	    -11.73738767	     -8.77388810	      9.34698878	      0.58075059	     -2.88432516	     -3.97535706	     -9.47196085	    -15.67937668	     19.92419496	     -7.09927545	    -10.04960600	      3.61353796	    -10.80297739
      1.44000000	      6.49093554	     -2.34733573	      7.40074269	     -1.39614692	      0.95740167	      0.02593315	     -6.39997284	      4.65039712	    -11.76607146	     -8.78691307	      9.36594823	      0.56617614	     -2.88977355	     -3.97712036	     -9.43445258	    -15.71289399	     19.94054003	     -7.10361353	    -10.07091460	      3.60941388	    -10.79946861
      1.45000000	      6.48587496	     -2.34774715	      7.40488764	     -1.39584842	      0.95738337	      0.02590819	     -6.40912010	      4.65310385	    -11.76907268	     -8.79549393	      9.36818006	      0.56462991	     -2.89922965	     -3.97782122	     -9.43132504	    -15.71994068	     19.94257655	     -7.10423832	    -10.06326363	      3.60881309	    -10.80156163
      1.46000000	      6.50412651	     -2.35344305	      7.44000297	     -1.39558594	      0.95737906	      0.02584856	     -6.42890076	      4.66457369	    -11.84730217	     -8.82971937	      9.41830530	      0.54529551	     -2.91179142	     -3.99015767	     -9.37816388	    -15.75657650	     19.99173552	     -7.10925409	    -10.09258691	      3.62114603	    -10.82591399
      1.47000000	      6.49839569	     -2.35277595	      7.44325697	     -1.39524814	      0.95735999	      0.02582761	     -6.43877595	      4.66669044	    -11.84935862	     -8.84031582	      9.41995387	      0.54414531	     -2.92225112	     -3.99109388	     -9.37462741	    -15.76680301	     19.99354527	     -7.10978451	    -10.08163968	      3.62020946	    -10.82750328
      1.48000000	      6.51332261	     -2.35871319	      7.47031439	     -1.39498467	      0.95734481	      0.02579028	     -6.44072605	      4.67564911	    -11.90586492	     -8.90259298	      9.46642181	      0.53058734	     -2.91976448	     -4.00699534	     -9.32125755	    -15.83082608	     20.04727840	     -7.10919042	    -10.11204840	      3.63212258	    -10.85365756
      1.49000000	      6.50062733	     -2.36973310	      7.51107253	     -1.39464269	      0.95727972	      0.02571700	     -6.42419463	      4.68671860	    -12.01228987	     -8.95092764	      9.54456817	      0.50214113	     -2.88929076	     -4.02892754	     -9.28284644	    -15.89467813	     20.12683039	     -7.10262730	    -10.09130527	      3.65281705	    -10.90432852
      1.50000000	      6.50476816	     -2.37130895	      7.51082806	     -1.39435160	      0.95725815	      0.02570732	     -6.41393074	      4.68743050	    -12.00298708	     -9.01695734	      9.56019263	      0.49485352	     -2.88167780	     -4.03759886	     -9.24292252	    -15.95898155	     20.14853006	     -7.09118452	    -10.11191448	      3.66457974	    -10.92005133
      1.51000000	      6.47920217	     -2.39862145	      7.54410605	     -1.39405745	      0.95714091	      0.02566431	     -6.35155665	      4.71036785	    -12.09257420	     -9.11786398	      9.67952601	      0.46105804	     -2.79725894	     -4.08521545	     -9.20593987	    -16.09610305	     20.28020624	     -7.00840889	    -10.09098924	      3.70722442	    -10.97040947
      1.52000000	      6.40946500	     -2.42280317	      7.55597765	     -1.39380374	      0.95696693	      0.02565983	     -6.22102612	      4.72147150	    -12.10800634	     -9.25441397	      9.74658127	      0.38734595	     -2.64975985	     -4.12588794	     -9.18101903	    -16.26180471	     20.34885154	     -6.83183206	    -10.02968859	      3.74300619	    -11.02021518
      1.53000000	      6.40652429	     -2.44117289	      7.55135366	     -1.39352197	      0.95688302	      0.02567562	     -6.17148534	      4.73505626	    -12.10785394	     -9.37745728	      9.84674419	      0.35426720	     -2.58998819	     -4.16572221	     -9.13943907	    -16.41121847	     20.48161885	     -6.71621607	    -10.05438961	      3.78350312	    -11.03063699
      1.54000000	      6.34030025	     -2.47080636	      7.54739296	     -1.39327156	      0.95668606	      0.02570478	     -6.01962187	      4.74958750	    -12.08534772	     -9.56097689	      9.94468803	      0.25485839	     -2.42013588	     -4.22064197	     -9.12907968	    -16.63277612	     20.59160499	     -6.45566268	    -10.00739427	      3.83320115	    -11.06895112
      1.55000000	      6.31039932	     -2.49164639	      7.52576596	     -1.39300597	      0.95653807	      0.02578677	     -5.90207803	      4.76077196	    -12.04100377	     -9.75555887	     10.06249712	      0.16006461	     -2.29454098	     -4.26978755	     -9.09883381	    -16.85658972	     20.73771597	     -6.22283617	    -10.01304504	      3.87122299	    -11.07206379
      1.56000000	      6.26449752	     -2.51667208	      7.49324178	     -1.39273092	      0.95635624	      0.02589722	     -5.74657925	      4.77288987	    -11.98442138	     -9.98623446	     10.18280376	      0.02594612	     -2.14540660	     -4.32118342	     -9.05011447	    -17.09699733	     20.88584902	     -5.92871817	    -10.00255779	      3.91327031	    -11.03612382
      1.57000000	      6.23950582	     -2.53072372	      7.44797419	     -1.39241875	      0.95619502	      0.02604293	     -5.59779048	      4.77449141	    -11.91272425	    -10.25429707	     10.33545511	     -0.10020431	     -2.02438863	     -4.36580695	     -9.01885644	    -17.34091259	     21.06512023	     -5.65569373	    -10.02049297	      3.94505171	    -11.00815346
      1.58000000	      6.22908133	     -2.53312793	      7.39071471	     -1.39206533	      0.95605041	      0.02621180	     -5.44633311	      4.76336741	    -11.83272526	    -10.56429381	     10.51117964	     -0.21626482	     -1.93319893	     -4.39874636	     -9.00107083	    -17.57160455	     21.27507348	     -5.39838305	    -10.05906859	      3.97063137	    -10.98087231
      1.59000000	      6.20694249	     -2.52988708	      7.32046630	     -1.39168560	      0.95587992	      0.02643306	     -5.26496013	      4.74439078	    -11.74908435	    -10.90746824	     10.69499612	     -0.36485215	     -1.83044510	     -4.42639135	     -8.98470189	    -17.81092810	     21.47731533	     -5.09060761	    -10.09220078	      3.98529259	    -10.93263645
      1.60000000	      6.17692031	     -2.52323611	      7.24315463	     -1.39127067	      0.95568878	      0.02668540	     -5.06376990	      4.72179222	    -11.66551798	    -11.27318402	     10.87691603	     -0.55818594	     -1.72590541	     -4.44837870	     -8.96000868	    -18.04558098	     21.66321937	     -4.72735982	    -10.12260809	      3.99748531	    -10.86396263
